<?xml version="1.0" encoding="utf-8"?>
<!-- Generator: Adobe Illustrator 27.8.1, SVG Export Plug-In . SVG Version: 6.00 Build 0)  -->
<svg version="1.1" id="Layer_1" xmlns="http://www.w3.org/2000/svg" xmlns:xlink="http://www.w3.org/1999/xlink" x="0px" y="0px"
	 viewBox="0 0 100 100" style="enable-background:new 0 0 100 100;" xml:space="preserve">
<style type="text/css">
	.st0{fill:url(#SVGID_1_);}
</style>
<g>
	<path d="M92.8,11L82,89.6c-0.1,1-0.9,1.8-1.9,1.8H64.4c-0.6,0-1.2-0.3-1.6-0.9L36.1,46c-1-1.6-3.2-1-3.4,0.9l-6,42.7
		c-0.2,1-0.9,1.8-1.9,1.8H9c-1.2,0-2-1.2-1.9-2.5l10.8-78.6c0.1-1,0.9-1.8,1.9-1.8h15.8c0.6,0,1.2,0.3,1.6,0.9L64,53.9
		c1,1.6,3.2,1,3.4-0.9l5.9-42.7c0.1-1,0.9-1.8,1.9-1.8H91C92.1,8.6,93,9.7,92.8,11z"/>
</g>
<g>
	<g>
		
			<linearGradient id="SVGID_1_" gradientUnits="userSpaceOnUse" x1="50.005" y1="6.7813" x2="50.005" y2="97.2287" gradientTransform="matrix(1 0 0 -1 0 102)">
			<stop  offset="7.853836e-04" style="stop-color:#933FFF"/>
			<stop  offset="1" style="stop-color:#FFE494"/>
		</linearGradient>
		<path class="st0" d="M83.1,95.2H62.5c-0.6,0-1.2-0.3-1.6-0.9L38.2,56.4c-1-1.6-3.2-1-3.4,0.9l-5.1,36.2c-0.2,1-0.9,1.8-1.9,1.8H5
			c-1.2,0-2-1.2-1.9-2.5L14.9,6.6c0.1-1,0.9-1.8,1.9-1.8h20.7c0.6,0,1.2,0.3,1.6,0.9l22.8,37.8c1,1.6,3.2,1,3.4-0.9l5-36.1
			c0.1-1,0.9-1.8,1.9-1.8H95c1.2,0,2,1.2,1.9,2.5L85,93.4C84.8,94.5,84,95.2,83.1,95.2z M66.3,87.7h10.8c0.9,0,1.7-0.8,1.9-1.8
			l9.8-71c0.2-1.3-0.7-2.5-1.9-2.5h-8.7c-0.9,0-1.7,0.8-1.9,1.8l-6.8,49.3c-0.3,1.9-2.5,2.5-3.4,0.9L35.2,13.3
			c-0.3-0.6-0.9-0.9-1.6-0.9H22.8c-0.9,0-1.7,0.8-1.9,1.8l-9.7,71c-0.2,1.3,0.7,2.5,1.9,2.5h8.7c0.9,0,1.7-0.8,1.9-1.8l7-49.3
			c0.3-1.9,2.5-2.5,3.4-0.9l30.7,51.1C65.1,87.3,65.7,87.7,66.3,87.7z"/>
	</g>
</g>
</svg>
